<svg width="40" height="49" viewBox="0 0 40 49" fill="none" xmlns="http://www.w3.org/2000/svg">
<path d="M38.8118 9.79224L40.0001 8.70637V6.72853L38.8118 5.27424V3.78116L37.5733 2.48199L36.9875 2.50139L36.9708 1.88089L36.3515 1.18283L34.6444 0.833795L33.8411 2.24931L33.8578 0.698061L31.4812 0L29.021 0.698061V2.30748L28.2344 1.29917L26.7448 1.04709L25.5565 2.44321V3.76177L24.9038 3.10249L23.749 4.26593V5.17729L22.9791 6.76731V8.74515L24.1674 9.6759V13.8837L23.5482 14.5235V16.6953L24.2511 17.1801V20.6898L14.795 7.23269H2.67786L5.33895 14.3878V41.9224L2.67786 49H14.8118V29.2216L29.0544 49H38.8118V17.1413L39.431 16.6565V14.5042L38.8118 13.8643V9.79224ZM28.8871 4.20776L29.6235 3.33518V1.49307L31.2134 1.0277V3.23823L30.6109 3.93629V4.59557L28.8871 5.02216V4.20776ZM28.6862 6.72853V10.723L30.0921 10.4709V6.45706L31.1967 6.24377V13.0305L27.7657 13.5152V6.92244L27.8996 6.88366L28.6862 6.72853ZM23.5984 8.31856V7.07756L24.3682 5.58449V4.65374L24.954 3.99446V5.91413L24.3515 6.96122V7.56233L23.5984 8.31856ZM26.862 24.3546L24.8703 21.5235V17.1994L26.862 15.5125V24.3546ZM26.862 13.7285L24.1507 16.0942V14.9501L24.7699 14.3102V9.28809L25.3222 8.72576V12.3518L26.1758 11.615V7.87258L26.8452 7.19391V13.7285H26.862ZM27.0795 5.44875L26.2762 5.66205L25.5063 6.41828V5.62327L26.1256 4.65374V2.85042L27.0795 1.90028L27.8662 2.03601V3.83933L27.0795 4.78947V5.44875ZM27.7657 25.6343V15.144L31.2134 14.6981V30.5208L27.7657 25.6343Z" fill="#007257"/>
<path d="M0 47.7396H0.301256V48.9806H0.669457V47.7396H0.953978V47.3906H0V47.7396Z" fill="#007257"/>
<path d="M1.4226 48.0693H1.43934L1.74059 48.9807H1.89122L2.22595 48.0693L2.32637 48.9807H2.67783L2.47699 47.3906H2.12553L1.82427 48.2438L1.53975 47.3906H1.18829L0.953979 48.9807H1.30545L1.4226 48.0693Z" fill="#007257"/>
</svg>
